<svg xmlns="http://www.w3.org/2000/svg" width="300" height="300" viewBox="0 0 300 300"><rect width="100%" height="100%" fill="#6a0dad"/><path fill="#ffffff" d="M80.13 154.815q.41 0 .73.32l1.96 2.12q-1.63 2.02-4.01 3.09-2.38 1.08-5.71 1.08-2.97 0-5.35-1.02t-4.06-2.83q-1.69-1.81-2.58-4.33-.9-2.52-.9-5.5 0-3.01.96-5.52.96-2.5 2.71-4.32 1.75-1.81 4.17-2.82 2.43-1.01 5.37-1.01 2.92 0 5.19.97 2.26.96 3.86 2.51l-1.67 2.31q-.15.23-.38.39-.23.17-.64.17-.27 0-.57-.16t-.65-.39-.81-.51q-.46-.27-1.08-.5-.61-.24-1.41-.39-.81-.16-1.86-.16-1.79 0-3.28.64t-2.57 1.85q-1.07 1.21-1.66 2.96t-.59 3.98q0 2.26.64 4.02.63 1.76 1.73 2.96 1.09 1.2 2.57 1.84t3.18.64q1.02 0 1.84-.11t1.52-.35q.69-.25 1.31-.62.62-.38 1.23-.94.19-.16.39-.27.2-.1.42-.1m5.44-21.18h4.57v27.49h-4.57zm17.54 8.21q2.11 0 3.84.69 1.73.68 2.96 1.94t1.9 3.07q.66 1.81.66 4.05 0 2.26-.66 4.07-.67 1.82-1.9 3.09-1.23 1.28-2.96 1.96-1.73.69-3.84.69-2.13 0-3.87-.69-1.73-.68-2.96-1.96-1.23-1.27-1.91-3.09-.68-1.81-.68-4.07 0-2.24.68-4.05t1.91-3.07 2.96-1.94q1.74-.69 3.87-.69m0 16.04q2.37 0 3.51-1.59 1.13-1.59 1.13-4.66t-1.13-4.68q-1.14-1.61-3.51-1.61-2.4 0-3.56 1.62t-1.16 4.67 1.16 4.65 3.56 1.6m24.64-15.74h4.57v18.98h-2.79q-.91 0-1.15-.83l-.31-1.52q-1.17 1.18-2.57 1.92-1.41.73-3.32.73-1.55 0-2.74-.53-1.2-.53-2.01-1.49t-1.23-2.29q-.42-1.32-.42-2.91v-12.06h4.57v12.06q0 1.74.81 2.69.8.96 2.41.96 1.19 0 2.22-.53 1.04-.53 1.96-1.45zm21 13.36v-8.51q-.78-.95-1.69-1.34-.92-.38-1.97-.38-1.04 0-1.87.38-.83.39-1.43 1.18-.59.79-.9 2-.32 1.21-.32 2.86 0 1.66.27 2.82.27 1.15.77 1.88t1.22 1.06q.72.32 1.61.32 1.42 0 2.42-.59t1.89-1.68m0-21.87h4.57v27.49h-2.79q-.91 0-1.15-.83l-.39-1.83q-1.15 1.31-2.64 2.12-1.48.82-3.46.82-1.56 0-2.85-.65-1.3-.65-2.23-1.88-.94-1.23-1.45-3.04-.5-1.81-.5-4.14 0-2.11.57-3.93.57-1.81 1.65-3.14 1.07-1.33 2.57-2.08t3.36-.75q1.6 0 2.72.5 1.13.5 2.02 1.35zm12.93 8.77q0 2.24 1.16 3.41 1.15 1.18 3.28 1.18 1.11 0 1.98-.36.87-.35 1.46-.96t.9-1.44.31-1.79q0-1.1-.34-1.96-.33-.86-.94-1.45t-1.45-.91q-.85-.31-1.84-.31-1.04 0-1.87.34-.84.34-1.43.95-.59.62-.9 1.46-.32.84-.32 1.84m-2.24 18.72 8.31-10.38q.31-.39.59-.76t.54-.74q-.93.59-2.04.9t-2.33.31q-1.39 0-2.72-.49-1.33-.48-2.37-1.45-1.03-.97-1.67-2.4-.64-1.44-.64-3.36 0-1.79.67-3.37.66-1.57 1.87-2.75 1.2-1.19 2.88-1.87 1.69-.69 3.72-.69 2.05 0 3.69.65t2.8 1.81q1.15 1.17 1.77 2.8t.62 3.57q0 1.24-.21 2.35t-.6 2.13q-.39 1.03-.95 2.01-.55.98-1.24 1.94l-6.12 8.74q-.31.44-.94.74-.63.31-1.43.31zm33.08-13.38q0 2.21.59 3.95.6 1.75 1.7 2.96 1.1 1.22 2.66 1.86 1.56.65 3.52.65 1.97 0 3.53-.65 1.56-.64 2.65-1.86 1.09-1.21 1.69-2.96.59-1.74.59-3.95 0-2.2-.59-3.95-.6-1.74-1.69-2.96-1.09-1.23-2.65-1.87-1.56-.65-3.53-.65-1.96 0-3.52.65-1.56.64-2.66 1.87-1.1 1.22-1.7 2.96-.59 1.75-.59 3.95m16.61 11.22 6.79 7.4h-4.1q-.89 0-1.6-.24-.72-.25-1.31-.89l-3.92-4.33q-.94.26-1.93.39t-2.07.13q-3.03 0-5.53-1.03-2.49-1.03-4.28-2.86t-2.77-4.34q-.98-2.5-.98-5.45 0-2.94.98-5.44.98-2.51 2.77-4.34t4.28-2.86q2.5-1.03 5.53-1.03 2.04 0 3.83.47 1.8.48 3.3 1.34t2.69 2.09 2.02 2.74q.84 1.52 1.27 3.3.44 1.77.44 3.73 0 1.8-.37 3.44-.37 1.63-1.07 3.06-.69 1.42-1.69 2.62-1 1.19-2.28 2.1m14.75-11.86h3.11q1.4 0 2.45-.35 1.04-.36 1.72-.98.67-.62 1.01-1.47.33-.85.33-1.86 0-2.04-1.34-3.13t-4.1-1.09h-3.18zm9.21 4.14 6.7 9.88h-4.5q-1.27 0-1.85-1l-5.62-8.56q-.32-.49-.69-.69-.38-.2-1.12-.2h-2.13v10.45h-4.98v-26.75h8.16q2.72 0 4.67.56 1.95.57 3.2 1.58 1.25 1.02 1.84 2.44.6 1.41.6 3.12 0 1.35-.4 2.55t-1.15 2.18-1.85 1.72-2.51 1.17q.48.27.89.65t.74.9"/></svg>