<svg xmlns="http://www.w3.org/2000/svg" width="600" height="400" viewBox="0 0 600 400"><rect width="100%" height="100%" fill="#d2691e"/><path fill="#ffffff" d="M177.54 219.895q1.11 0 1.97.86l5.35 5.81q-4.45 5.5-10.94 8.43-6.48 2.93-15.57 2.93-8.13 0-14.62-2.78t-11.09-7.73q-4.59-4.95-7.04-11.81-2.45-6.87-2.45-15 0-8.23 2.62-15.08 2.63-6.84 7.4-11.79t11.39-7.7q6.61-2.75 14.64-2.75 7.98 0 14.17 2.63 6.19 2.62 10.53 6.86l-4.55 6.32q-.4.6-1.03 1.06-.63.45-1.74.45-.76 0-1.57-.43t-1.77-1.06-2.22-1.39-2.93-1.39q-1.66-.63-3.86-1.06t-5.08-.43q-4.89 0-8.96 1.75-4.07 1.74-6.99 5.05-2.93 3.3-4.55 8.08-1.62 4.77-1.62 10.88 0 6.16 1.75 10.96 1.74 4.79 4.72 8.08 2.98 3.28 7.02 5.02t8.68 1.74q2.78 0 5.03-.3t4.14-.96 3.59-1.69q1.69-1.04 3.35-2.55.51-.46 1.06-.73.56-.28 1.17-.28m37.62-35.4q5.76 0 10.48 1.87t8.08 5.3 5.17 8.38q1.82 4.95 1.82 11.06 0 6.16-1.82 11.11-1.81 4.95-5.17 8.44-3.36 3.48-8.08 5.35t-10.48 1.87q-5.81 0-10.56-1.87-4.74-1.87-8.1-5.35-3.36-3.49-5.2-8.44-1.85-4.95-1.85-11.11 0-6.11 1.85-11.06 1.84-4.95 5.2-8.38t8.1-5.3q4.75-1.87 10.56-1.87m0 43.78q6.46 0 9.57-4.34 3.1-4.34 3.1-12.73 0-8.38-3.1-12.77-3.11-4.4-9.57-4.4-6.57 0-9.72 4.42-3.16 4.42-3.16 12.75 0 8.34 3.16 12.7 3.15 4.37 9.72 4.37m58.02-43.78q5.76 0 10.48 1.87t8.08 5.3 5.18 8.38 1.82 11.06q0 6.16-1.82 11.11t-5.18 8.44q-3.36 3.48-8.08 5.35t-10.48 1.87q-5.8 0-10.55-1.87t-8.11-5.35q-3.36-3.49-5.2-8.44t-1.84-11.11q0-6.11 1.84-11.06t5.2-8.38 8.11-5.3 10.55-1.87m0 43.78q6.47 0 9.57-4.34 3.11-4.34 3.11-12.73 0-8.38-3.11-12.77-3.1-4.4-9.57-4.4-6.56 0-9.72 4.42-3.15 4.42-3.15 12.75 0 8.34 3.15 12.7 3.16 4.37 9.72 4.37m35.1-66.2h12.47v42.97h2.33q1.26 0 1.99-.33.73-.32 1.49-1.33l12.88-15.91q.81-1.06 1.79-1.62.99-.55 2.55-.55h11.41l-16.1 19.24q-1.72 2.27-3.74 3.48 1.06.76 1.89 1.77.84 1.01 1.59 2.17l17.27 25.15h-11.26q-1.46 0-2.52-.48t-1.77-1.74l-13.23-19.65q-.71-1.16-1.47-1.51-.75-.36-2.27-.36h-2.83v23.74h-12.47zm54.39 23.23h12.52v51.81h-12.52zm14.24-15.1q0 1.61-.66 3.03-.65 1.41-1.74 2.47-1.08 1.06-2.55 1.69-1.46.63-3.13.63-1.62 0-3.06-.63-1.43-.63-2.5-1.69-1.06-1.06-1.69-2.47-.63-1.42-.63-3.03 0-1.67.63-3.13.63-1.47 1.69-2.53 1.07-1.06 2.5-1.69 1.44-.63 3.06-.63 1.67 0 3.13.63 1.47.63 2.55 1.69 1.09 1.06 1.74 2.53.66 1.46.66 3.13m20.86 35.04h23.53q0-2.42-.68-4.57-.68-2.14-2.05-3.76-1.36-1.61-3.46-2.55-2.09-.93-4.87-.93-5.4 0-8.51 3.08t-3.96 8.73m31.81 7.53h-32.07q.31 3.99 1.42 6.89 1.11 2.91 2.93 4.8 1.81 1.89 4.31 2.83 2.5.93 5.53.93t5.23-.71q2.2-.7 3.84-1.56t2.88-1.57q1.23-.7 2.4-.7 1.56 0 2.32 1.16l3.58 4.54q-2.07 2.43-4.64 4.07-2.58 1.64-5.38 2.62-2.8.99-5.71 1.39-2.9.41-5.63.41-5.4 0-10.05-1.8-4.64-1.79-8.08-5.3-3.43-3.51-5.4-8.68-1.97-5.18-1.97-12 0-5.3 1.72-9.97 1.71-4.67 4.92-8.13t7.83-5.48 10.43-2.02q4.9 0 9.04 1.56 4.14 1.57 7.12 4.57 2.98 3.01 4.67 7.38t1.69 9.97q0 2.83-.61 3.81-.6.99-2.32.99m46.71-21.87-2.82 4.5q-.51.8-1.06 1.13-.56.33-1.42.33-.91 0-1.94-.5-1.04-.51-2.4-1.14-1.37-.63-3.11-1.14-1.74-.5-4.11-.5-3.69 0-5.79 1.56-2.09 1.57-2.09 4.09 0 1.67 1.08 2.81 1.09 1.13 2.88 1.99 1.8.86 4.07 1.54t4.62 1.49 4.62 1.85q2.27 1.03 4.07 2.62 1.79 1.59 2.87 3.81 1.09 2.23 1.09 5.36 0 3.73-1.34 6.89t-3.96 5.45q-2.63 2.3-6.49 3.59-3.87 1.29-8.92 1.29-2.67 0-5.22-.48t-4.9-1.34-4.34-2.02q-2-1.16-3.51-2.53l2.87-4.74q.56-.86 1.32-1.32.76-.45 1.92-.45t2.19.66q1.04.65 2.4 1.41 1.37.76 3.21 1.41 1.84.66 4.67.66 2.22 0 3.81-.53t2.63-1.39q1.03-.86 1.51-1.99.48-1.14.48-2.35 0-1.82-1.08-2.98-1.09-1.16-2.88-2.02t-4.09-1.54-4.7-1.49-4.69-1.89q-2.3-1.09-4.09-2.76-1.8-1.66-2.88-4.09-1.09-2.42-1.09-5.85 0-3.19 1.26-6.06 1.27-2.88 3.72-5.03 2.44-2.15 6.11-3.43 3.66-1.29 8.45-1.29 5.36 0 9.75 1.77 4.39 1.76 7.32 4.64"/></svg>