<svg xmlns="http://www.w3.org/2000/svg" width="600" height="400" viewBox="0 0 600 400"><rect width="100%" height="100%" fill="#32cd32"/><path fill="#ffffff" d="M157.02 200.36h20.64v25.16q-4.73 3.48-10.08 5.1-5.36 1.61-11.46 1.61-7.61 0-13.78-2.37-6.17-2.36-10.54-6.58-4.36-4.21-6.73-10.06-2.36-5.85-2.36-12.77 0-7.01 2.28-12.86 2.28-5.84 6.47-10.06 4.19-4.21 10.17-6.53 5.97-2.33 13.41-2.33 3.79 0 7.08.61 3.29.6 6.1 1.65 2.82 1.05 5.14 2.56 2.32 1.5 4.26 3.31l-3.31 5.25q-.78 1.24-2.02 1.52-1.25.28-2.71-.62-1.42-.82-2.84-1.63-1.42-.82-3.16-1.42-1.74-.61-3.91-.99-2.18-.39-5.01-.39-4.6 0-8.32 1.55t-6.35 4.43q-2.62 2.88-4.04 6.92t-1.42 9.03q0 5.33 1.53 9.53 1.53 4.19 4.3 7.09t6.69 4.43q3.91 1.53 8.72 1.53 3.44 0 6.15-.74 2.71-.73 5.29-1.97v-11.27h-7.82q-1.12 0-1.75-.62-.62-.63-.62-1.53zm57.54-12.94h10.62v44.12h-6.5q-2.1 0-2.66-1.94l-.73-3.52q-2.71 2.75-5.98 4.45t-7.7 1.7q-3.61 0-6.38-1.23-2.78-1.22-4.67-3.46t-2.86-5.31-.97-6.77v-28.04h10.63v28.04q0 4.04 1.87 6.25 1.87 2.22 5.61 2.22 2.75 0 5.16-1.23 2.41-1.22 4.56-3.37zm31.73 44.12h-10.62v-44.12h6.49q2.07 0 2.71 1.94l.69 3.26q1.16-1.29 2.43-2.36 1.27-1.08 2.71-1.85t3.09-1.22q1.66-.46 3.64-.46 4.17 0 6.85 2.26 2.69 2.26 4.03 6 1.03-2.19 2.58-3.76 1.54-1.57 3.39-2.56t3.94-1.46q2.08-.48 4.19-.48 3.65 0 6.49 1.12t4.78 3.27q1.93 2.15 2.94 5.25 1.01 3.09 1.01 7.09v28.08h-10.62v-28.08q0-4.21-1.85-6.34t-5.42-2.13q-1.63 0-3.03.56t-2.45 1.61-1.65 2.65q-.61 1.59-.61 3.65v28.08h-10.66v-28.08q0-4.43-1.79-6.45-1.78-2.02-5.22-2.02-2.32 0-4.32 1.14t-3.72 3.12zm72.02 0h-10.62v-44.12h6.5q2.06 0 2.71 1.94l.68 3.26q1.16-1.29 2.43-2.36 1.27-1.08 2.71-1.85t3.1-1.22q1.65-.46 3.63-.46 4.17 0 6.86 2.26t4.02 6q1.03-2.19 2.58-3.76t3.4-2.56 3.93-1.46q2.09-.48 4.19-.48 3.66 0 6.5 1.12t4.77 3.27q1.94 2.15 2.95 5.25 1.01 3.09 1.01 7.09v28.08h-10.62v-28.08q0-4.21-1.85-6.34t-5.42-2.13q-1.64 0-3.03.56-1.4.56-2.45 1.61-1.06 1.05-1.66 2.65-.6 1.59-.6 3.65v28.08h-10.67v-28.08q0-4.43-1.78-6.45t-5.22-2.02q-2.33 0-4.33 1.14t-3.72 3.12zm61.75-44.12h10.67v44.12h-10.67zm12.13-12.86q0 1.38-.56 2.58-.56 1.21-1.48 2.11-.93.9-2.18 1.44-1.24.54-2.66.54-1.38 0-2.6-.54-1.23-.54-2.13-1.44t-1.44-2.11q-.54-1.2-.54-2.58 0-1.41.54-2.66t1.44-2.15 2.13-1.44q1.22-.54 2.6-.54 1.42 0 2.66.54 1.25.54 2.18 1.44.92.9 1.48 2.15t.56 2.66m17.76 29.85h20.04q0-2.07-.58-3.89-.59-1.83-1.75-3.21-1.16-1.37-2.94-2.17-1.79-.8-4.15-.8-4.6 0-7.25 2.63-2.64 2.62-3.37 7.44m27.09 6.4h-27.31q.26 3.4 1.21 5.87.94 2.48 2.49 4.09t3.68 2.41q2.13.79 4.71.79t4.45-.6 3.26-1.33q1.4-.73 2.45-1.34 1.06-.6 2.05-.6 1.33 0 1.98.99l3.05 3.87q-1.76 2.06-3.96 3.46-2.19 1.4-4.58 2.24-2.38.84-4.86 1.18-2.47.35-4.79.35-4.6 0-8.56-1.53-3.95-1.53-6.88-4.52-2.92-2.99-4.6-7.39-1.68-4.41-1.68-10.22 0-4.51 1.47-8.49 1.46-3.98 4.19-6.92 2.73-2.95 6.66-4.67 3.94-1.72 8.88-1.72 4.17 0 7.7 1.34 3.53 1.33 6.06 3.89 2.54 2.56 3.98 6.28t1.44 8.49q0 2.41-.51 3.25-.52.83-1.98.83m39.77-18.62-2.41 3.83q-.43.69-.9.97t-1.2.28q-.78 0-1.66-.43t-2.04-.97-2.65-.97q-1.48-.43-3.5-.43-3.14 0-4.92 1.34-1.79 1.33-1.79 3.48 0 1.42.93 2.39.92.96 2.45 1.69 1.52.74 3.46 1.32 1.93.58 3.93 1.26 2 .69 3.94 1.57 1.93.89 3.46 2.24t2.45 3.25q.93 1.89.93 4.55 0 3.19-1.14 5.87-1.14 2.69-3.38 4.65-2.24 1.95-5.52 3.05-3.29 1.1-7.59 1.1-2.28 0-4.46-.41-2.17-.41-4.17-1.14t-3.69-1.72q-1.7-.99-2.99-2.15l2.45-4.04q.47-.73 1.12-1.12.64-.39 1.63-.39t1.87.56 2.04 1.21q1.16.64 2.73 1.2t3.98.56q1.89 0 3.25-.45 1.35-.45 2.23-1.19.89-.73 1.29-1.69.41-.97.41-2 0-1.55-.92-2.54-.93-.99-2.45-1.72-1.53-.73-3.49-1.31-1.95-.58-3.99-1.27-2.05-.69-4-1.61-1.96-.93-3.49-2.35-1.52-1.42-2.45-3.48-.92-2.06-.92-4.99 0-2.71 1.07-5.16 1.08-2.45 3.16-4.28 2.09-1.82 5.21-2.92 3.11-1.1 7.2-1.1 4.56 0 8.3 1.51 3.74 1.5 6.23 3.95"/></svg>