<svg xmlns="http://www.w3.org/2000/svg" width="1200" height="400" viewBox="0 0 1200 400"><rect width="100%" height="100%" fill="#fceabb"/><path fill="#f8b500" d="M280.22 163.775h11.07v59.29h-11.07v-25.91h-27.84v25.91h-11.07v-59.29h11.07v25.51h27.84zm30.67 33.42h19.1q0-1.97-.55-3.71t-1.66-3.06q-1.11-1.31-2.81-2.07t-3.96-.76q-4.38 0-6.9 2.51-2.53 2.5-3.22 7.09m25.83 6.11h-26.04q.25 3.24 1.15 5.59.9 2.36 2.38 3.9 1.47 1.54 3.5 2.3 2.03.75 4.49.75t4.25-.57q1.78-.57 3.11-1.27 1.34-.7 2.34-1.27 1-.58 1.95-.58 1.27 0 1.88.95l2.91 3.69q-1.68 1.96-3.77 3.3-2.09 1.33-4.36 2.13-2.28.8-4.64 1.13-2.35.32-4.57.32-4.39 0-8.16-1.45-3.77-1.46-6.56-4.31t-4.38-7.05q-1.6-4.2-1.6-9.74 0-4.3 1.39-8.09 1.39-3.8 4-6.6 2.6-2.81 6.35-4.45t8.47-1.64q3.98 0 7.34 1.27t5.78 3.71 3.79 5.99q1.38 3.54 1.38 8.09 0 2.3-.5 3.1-.49.8-1.88.8m18.9-19.76.61 4.75q1.97-3.77 4.68-5.92 2.7-2.15 6.39-2.15 2.91 0 4.68 1.27l-.66 7.58q-.2.74-.59 1.05-.39.3-1.05.3-.61 0-1.82-.2-1.21-.21-2.36-.21-1.68 0-2.99.5-1.32.49-2.36 1.41-1.05.92-1.85 2.23-.8 1.32-1.49 3v25.91h-10.13v-42.07h5.95q1.55 0 2.17.56.61.55.82 1.99m40.26-3.2q4.67 0 8.51 1.52 3.83 1.51 6.56 4.3 2.72 2.79 4.2 6.81 1.48 4.01 1.48 8.97 0 5.01-1.48 9.02-1.48 4.02-4.2 6.85-2.73 2.83-6.56 4.35-3.84 1.51-8.51 1.51-4.71 0-8.57-1.51-3.85-1.52-6.58-4.35t-4.22-6.85q-1.5-4.01-1.5-9.02 0-4.96 1.5-8.97 1.49-4.02 4.22-6.81t6.58-4.3q3.86-1.52 8.57-1.52m0 35.54q5.25 0 7.77-3.52 2.52-3.53 2.52-10.33 0-6.81-2.52-10.38-2.52-3.56-7.77-3.56-5.33 0-7.89 3.58-2.56 3.59-2.56 10.36 0 6.76 2.56 10.31 2.56 3.54 7.89 3.54m61.09-52.11v59.29H445.9v-59.29zm21.77 59.29h-10.13v-42.07h6.2q1.96 0 2.58 1.85l.65 3.11q1.11-1.23 2.32-2.25 1.21-1.03 2.58-1.76 1.38-.74 2.96-1.17 1.57-.43 3.46-.43 3.98 0 6.54 2.15t3.83 5.72q.99-2.09 2.46-3.59 1.48-1.49 3.24-2.44 1.77-.94 3.75-1.39 1.99-.45 4-.45 3.49 0 6.19 1.06 2.71 1.07 4.55 3.12 1.85 2.05 2.81 5 .97 2.95.97 6.77v26.77h-10.13v-26.77q0-4.02-1.76-6.05-1.77-2.03-5.17-2.03-1.56 0-2.89.53-1.33.54-2.34 1.54-1 1-1.58 2.52-.57 1.52-.57 3.49v26.77h-10.17v-26.77q0-4.23-1.7-6.15-1.7-1.93-4.98-1.93-2.22 0-4.12 1.09-1.91 1.08-3.55 2.97zm80.77-10.87v-7.09q-4.39.21-7.38.76t-4.8 1.41q-1.8.87-2.58 2.01-.78 1.15-.78 2.5 0 2.67 1.58 3.82t4.12 1.15q3.12 0 5.39-1.13 2.28-1.13 4.45-3.43m-21.4-22.09-1.8-3.24q7.25-6.64 17.46-6.64 3.69 0 6.6 1.2 2.91 1.21 4.92 3.37 2.01 2.15 3.06 5.14 1.04 2.99 1.04 6.56v26.57h-4.59q-1.43 0-2.21-.43t-1.23-1.74l-.91-3.04q-1.59 1.44-3.11 2.52-1.52 1.09-3.16 1.83t-3.5 1.13q-1.87.39-4.12.39-2.67 0-4.92-.72-2.26-.72-3.9-2.15-1.64-1.44-2.54-3.57t-.9-4.96q0-1.6.53-3.18t1.74-3.01q1.21-1.44 3.14-2.71t4.73-2.21q2.81-.95 6.54-1.54t8.53-.72v-2.46q0-4.22-1.8-6.25-1.81-2.03-5.21-2.03-2.46 0-4.08.57-1.62.58-2.85 1.3-1.23.71-2.23 1.29-1.01.57-2.24.57-1.06 0-1.8-.55-.74-.56-1.19-1.29m56.17 10.9q1.89 0 3.28-.51t2.32-1.41q.92-.91 1.39-2.18t.47-2.79q0-3.11-1.86-4.94-1.87-1.82-5.6-1.82t-5.6 1.82q-1.86 1.83-1.86 4.94 0 1.48.47 2.75t1.39 2.19q.93.93 2.34 1.44t3.26.51m11.44 23.95q0-1.23-.74-2.01t-2.01-1.21-2.97-.64q-1.7-.2-3.61-.31-1.91-.1-3.93-.18-2.03-.08-3.96-.33-1.68.95-2.73 2.22-1.04 1.27-1.04 2.95 0 1.11.55 2.07t1.76 1.66 3.14 1.09q1.93.38 4.71.38 2.83 0 4.88-.43t3.39-1.18q1.33-.76 1.94-1.81.62-1.04.62-2.27m-2.01-42.52h12.09v3.77q0 1.81-2.17 2.21l-3.77.7q.86 2.17.86 4.76 0 3.11-1.25 5.64-1.25 2.52-3.46 4.28-2.22 1.76-5.23 2.73-3.02.96-6.5.96-1.23 0-2.38-.12-1.15-.13-2.25-.33-1.97 1.19-1.97 2.66 0 1.27 1.17 1.87 1.17.59 3.09.84 1.93.25 4.39.31t5.04.26q2.59.21 5.05.72t4.38 1.62q1.93 1.11 3.1 3.01 1.17 1.91 1.17 4.9 0 2.79-1.38 5.42-1.37 2.62-3.97 4.67-2.61 2.05-6.4 3.3t-8.63 1.25q-4.76 0-8.28-.92-3.53-.92-5.87-2.46-2.33-1.54-3.48-3.55t-1.15-4.18q0-2.95 1.79-4.94 1.78-1.99 4.89-3.18-1.68-.86-2.66-2.29-.98-1.44-.98-3.78 0-.94.34-1.94.35-1.01 1.03-1.99.68-.99 1.7-1.87 1.03-.88 2.42-1.58-3.2-1.72-5.02-4.59-1.83-2.87-1.83-6.72 0-3.12 1.25-5.64t3.49-4.3q2.23-1.79 5.29-2.73 3.05-.94 6.66-.94 2.71 0 5.08.55 2.38.55 4.35 1.62m26.49 14.76h19.1q0-1.97-.55-3.71-.56-1.74-1.66-3.06-1.11-1.31-2.81-2.07t-3.96-.76q-4.38 0-6.91 2.51-2.52 2.5-3.21 7.09m25.83 6.11h-26.04q.25 3.24 1.15 5.59.9 2.36 2.38 3.9 1.47 1.54 3.5 2.3 2.03.75 4.49.75t4.25-.57q1.78-.57 3.11-1.27t2.34-1.27q1-.58 1.95-.58 1.27 0 1.88.95l2.91 3.69q-1.68 1.96-3.77 3.3-2.09 1.33-4.37 2.13-2.27.8-4.63 1.13-2.36.32-4.57.32-4.39 0-8.16-1.45-3.77-1.46-6.56-4.31t-4.39-7.05-1.6-9.74q0-4.3 1.4-8.09 1.39-3.8 4-6.6 2.6-2.81 6.35-4.45t8.47-1.64q3.97 0 7.34 1.27 3.36 1.27 5.78 3.71t3.79 5.99q1.37 3.54 1.37 8.09 0 2.3-.49 3.1t-1.88.8m72.2 5.78q.9 0 1.6.7l4.34 4.71q-3.61 4.47-8.87 6.85-5.27 2.38-12.65 2.38-6.6 0-11.87-2.26-5.27-2.25-9-6.27t-5.72-9.6q-1.99-5.57-1.99-12.17 0-6.69 2.13-12.24 2.13-5.56 6.01-9.58 3.87-4.01 9.24-6.25 5.37-2.23 11.89-2.23 6.48 0 11.5 2.13 5.03 2.13 8.55 5.58l-3.69 5.12q-.33.49-.84.86t-1.41.37q-.62 0-1.27-.35-.66-.35-1.44-.86t-1.8-1.13q-1.03-.61-2.38-1.12-1.35-.52-3.14-.86-1.78-.35-4.12-.35-3.97 0-7.27 1.41-3.31 1.42-5.68 4.1-2.38 2.69-3.69 6.56-1.32 3.88-1.32 8.84 0 5 1.42 8.89 1.41 3.9 3.83 6.56 2.42 2.67 5.7 4.08 3.28 1.42 7.05 1.42 2.26 0 4.08-.25 1.83-.24 3.37-.78 1.53-.53 2.91-1.37 1.37-.84 2.72-2.07.41-.37.86-.6.45-.22.95-.22m12.05-46.95h10.13v60.93h-10.13zm38.87 18.21q4.67 0 8.51 1.52 3.83 1.51 6.56 4.3 2.72 2.79 4.2 6.81 1.47 4.01 1.47 8.97 0 5.01-1.47 9.02-1.48 4.02-4.2 6.85-2.73 2.83-6.56 4.35-3.84 1.51-8.51 1.51-4.72 0-8.57-1.51-3.85-1.52-6.58-4.35t-4.22-6.85q-1.5-4.01-1.5-9.02 0-4.96 1.5-8.97 1.49-4.02 4.22-6.81t6.58-4.3q3.85-1.52 8.57-1.52m0 35.54q5.25 0 7.77-3.52 2.52-3.53 2.52-10.33 0-6.81-2.52-10.38-2.52-3.56-7.77-3.56-5.33 0-7.89 3.58-2.57 3.59-2.57 10.36 0 6.76 2.57 10.31 2.56 3.54 7.89 3.54m54.61-34.89h10.13v42.07h-6.19q-2.01 0-2.55-1.84l-.69-3.37q-2.59 2.63-5.7 4.25-3.12 1.62-7.34 1.62-3.44 0-6.09-1.17-2.64-1.17-4.45-3.3-1.8-2.14-2.72-5.07-.93-2.93-.93-6.45v-26.74h10.13v26.74q0 3.85 1.78 5.96 1.79 2.11 5.35 2.11 2.63 0 4.92-1.17 2.3-1.16 4.35-3.21zm46.54 29.61v-18.86q-1.73-2.09-3.76-2.96-2.03-.86-4.36-.86-2.3 0-4.14.86-1.85.87-3.16 2.61t-2.01 4.43q-.7 2.68-.7 6.33 0 3.69.6 6.25.59 2.56 1.7 4.18t2.71 2.34q1.59.72 3.56.72 3.16 0 5.37-1.31 2.22-1.31 4.19-3.73m0-48.47h10.12v60.93h-6.19q-2.01 0-2.54-1.84l-.86-4.06q-2.54 2.91-5.84 4.71t-7.69 1.8q-3.45 0-6.32-1.43t-4.94-4.16-3.19-6.75q-1.13-4.01-1.13-9.18 0-4.67 1.27-8.69t3.65-6.97 5.7-4.61 7.46-1.66q3.53 0 6.03 1.1 2.5 1.11 4.47 2.99zm48.58 19.44q0 4.96 2.56 7.56 2.57 2.61 7.28 2.61 2.46 0 4.39-.78 1.92-.78 3.24-2.13 1.31-1.36 1.99-3.2.67-1.85.67-3.98 0-2.42-.74-4.33-.73-1.9-2.09-3.21-1.35-1.32-3.22-2.01-1.86-.7-4.08-.7-2.29 0-4.14.76-1.84.76-3.15 2.11-1.32 1.35-2.01 3.22-.7 1.86-.7 4.08m-4.96 41.49 18.41-23q.7-.86 1.31-1.68.62-.82 1.19-1.64-2.05 1.31-4.51 1.99-2.46.67-5.17.67-3.07 0-6.02-1.06-2.96-1.07-5.25-3.22-2.3-2.15-3.71-5.33-1.42-3.18-1.42-7.44 0-3.98 1.48-7.47 1.48-3.48 4.14-6.1 2.67-2.63 6.4-4.15 3.73-1.51 8.24-1.51 4.55 0 8.18 1.43 3.63 1.44 6.19 4.02t3.93 6.19q1.38 3.61 1.38 7.91 0 2.75-.47 5.21-.48 2.46-1.34 4.74-.86 2.27-2.09 4.45-1.23 2.17-2.74 4.3l-13.58 19.35q-.69.99-2.09 1.66-1.39.68-3.15.68z"/></svg>