<svg xmlns="http://www.w3.org/2000/svg" width="300" height="300" viewBox="0 0 300 300"><rect width="100%" height="100%" fill="#ff69b4"/><path fill="#ffffff" d="M76.69 153.425q.34 0 .6.27l1.65 1.78q-1.37 1.69-3.36 2.59t-4.78.9q-2.5 0-4.49-.85-1.99-.86-3.4-2.38t-2.16-3.62q-.75-2.11-.75-4.61 0-2.52.8-4.62.81-2.1 2.27-3.62 1.47-1.52 3.5-2.37 2.03-.84 4.49-.84 2.45 0 4.35.8 1.9.81 3.23 2.11l-1.39 1.94q-.13.19-.32.33t-.53.14q-.24 0-.48-.14-.25-.13-.55-.32-.29-.2-.68-.43t-.9-.42q-.51-.2-1.18-.33-.68-.13-1.56-.13-1.51 0-2.75.53-1.25.54-2.15 1.55-.9 1.02-1.39 2.48-.5 1.47-.5 3.34 0 1.89.53 3.37.54 1.47 1.45 2.48.92 1 2.16 1.54 1.24.53 2.66.53.86 0 1.55-.09t1.27-.29q.58-.21 1.1-.52.52-.32 1.03-.79.15-.14.32-.22.17-.09.36-.09m4.56-17.74h3.83v23.03h-3.83zm14.69 6.88q1.77 0 3.22.57 1.45.58 2.48 1.63t1.59 2.57q.55 1.52.55 3.4 0 1.89-.55 3.41-.56 1.52-1.59 2.59t-2.48 1.64-3.22.57q-1.78 0-3.24-.57t-2.49-1.64-1.59-2.59q-.57-1.52-.57-3.41 0-1.88.57-3.4.56-1.52 1.59-2.57t2.49-1.63q1.46-.57 3.24-.57m0 13.44q1.99 0 2.94-1.34.95-1.33.95-3.9t-.95-3.92-2.94-1.35q-2.01 0-2.98 1.35-.97 1.36-.97 3.92t.97 3.9 2.98 1.34m20.65-13.19h3.83v15.9h-2.34q-.76 0-.97-.7l-.26-1.27q-.98.99-2.15 1.61-1.18.61-2.78.61-1.3 0-2.3-.44-1-.45-1.68-1.25-.68-.81-1.03-1.92-.35-1.1-.35-2.44v-10.1h3.83v10.1q0 1.46.67 2.26.68.8 2.02.8 1 0 1.86-.45.87-.44 1.65-1.21zm17.59 11.19v-7.13q-.65-.79-1.42-1.12-.77-.32-1.65-.32-.87 0-1.56.32-.7.33-1.2.99-.49.66-.76 1.67-.26 1.02-.26 2.39 0 1.4.22 2.37.23.97.65 1.58t1.02.88 1.35.27q1.19 0 2.03-.49.84-.5 1.58-1.41m0-18.32h3.83v23.03h-2.34q-.76 0-.96-.7l-.33-1.53q-.96 1.1-2.21 1.78t-2.9.68q-1.31 0-2.39-.54-1.09-.54-1.87-1.57t-1.21-2.55q-.42-1.52-.42-3.48 0-1.76.48-3.28t1.38-2.64q.9-1.11 2.15-1.74 1.26-.63 2.82-.63 1.33 0 2.28.42t1.69 1.13zm18.37 7.34q0 1.88.97 2.86.96.99 2.75.99.93 0 1.66-.3.72-.29 1.22-.8t.75-1.21q.26-.7.26-1.5 0-.92-.28-1.64t-.79-1.22q-.51-.49-1.22-.76-.7-.26-1.54-.26-.87 0-1.57.29-.69.28-1.19.79-.5.52-.76 1.22-.26.71-.26 1.54m-1.88 15.69 6.96-8.7q.26-.32.5-.63.23-.31.45-.62-.78.49-1.71.75t-1.95.26q-1.16 0-2.28-.41-1.12-.4-1.98-1.21-.87-.82-1.41-2.02-.53-1.2-.53-2.81 0-1.5.56-2.82.55-1.32 1.56-2.31t2.42-1.57q1.41-.57 3.12-.57 1.72 0 3.09.54t2.34 1.52 1.49 2.34q.52 1.37.52 2.99 0 1.04-.18 1.97t-.51 1.79q-.32.86-.79 1.68-.46.82-1.04 1.63l-5.13 7.32q-.26.37-.79.62-.52.26-1.19.26zm28.94-3.44h8.96v3.44h-13.13v-22.41h4.17zm18.37-12.71q1.76 0 3.21.57 1.45.58 2.48 1.63t1.59 2.57.56 3.4q0 1.89-.56 3.41t-1.59 2.59-2.48 1.64-3.21.57q-1.78 0-3.24-.57t-2.49-1.64-1.6-2.59q-.56-1.52-.56-3.41 0-1.88.56-3.4.57-1.52 1.6-2.57t2.49-1.63q1.46-.57 3.24-.57m0 13.44q1.98 0 2.93-1.34.96-1.33.96-3.9t-.96-3.92q-.95-1.35-2.93-1.35-2.02 0-2.99 1.35-.96 1.36-.96 3.92t.96 3.9q.97 1.34 2.99 1.34m16.58-5.63q.72 0 1.24-.19.53-.2.88-.54t.53-.82q.17-.48.17-1.05 0-1.18-.7-1.87-.71-.69-2.12-.69t-2.11.69q-.71.69-.71 1.87 0 .56.18 1.04t.53.82q.35.35.88.55.54.19 1.23.19m4.33 9.05q0-.46-.28-.76-.28-.29-.76-.45-.48-.17-1.13-.24-.64-.08-1.36-.12t-1.49-.07q-.76-.03-1.49-.12-.64.35-1.03.83-.4.48-.4 1.12 0 .42.21.78.21.37.67.63.45.26 1.18.41t1.79.15 1.84-.17q.77-.16 1.28-.44.5-.29.73-.69.24-.39.24-.86m-.76-16.07h4.57v1.43q0 .68-.82.83l-1.43.27q.33.82.33 1.79 0 1.18-.47 2.14-.48.95-1.31 1.61-.84.67-1.98 1.04-1.14.36-2.46.36-.46 0-.9-.05-.43-.04-.85-.12-.74.45-.74 1.01 0 .48.44.7.44.23 1.17.32t1.66.12q.93.02 1.9.1.98.07 1.91.27.93.19 1.66.61t1.17 1.14.44 1.85q0 1.06-.52 2.05t-1.5 1.77q-.99.77-2.42 1.24-1.43.48-3.26.48-1.8 0-3.13-.35-1.34-.35-2.22-.93t-1.32-1.34q-.43-.76-.43-1.58 0-1.12.67-1.87.68-.75 1.86-1.2-.64-.33-1.01-.87t-.37-1.43q0-.35.13-.73t.38-.76q.26-.37.65-.7t.91-.6q-1.21-.65-1.9-1.73-.69-1.09-.69-2.55 0-1.17.48-2.13.47-.95 1.31-1.62.85-.68 2-1.04 1.16-.35 2.52-.35 1.03 0 1.92.21.9.21 1.65.61m14.03-.79q1.76 0 3.21.57 1.45.58 2.48 1.63t1.59 2.57.56 3.4q0 1.89-.56 3.41t-1.59 2.59-2.48 1.64-3.21.57q-1.79 0-3.24-.57-1.46-.57-2.49-1.64t-1.6-2.59q-.56-1.52-.56-3.41 0-1.88.56-3.4.57-1.52 1.6-2.57t2.49-1.63q1.45-.57 3.24-.57m0 13.44q1.98 0 2.93-1.34.96-1.33.96-3.9t-.96-3.92q-.95-1.35-2.93-1.35-2.02 0-2.99 1.35-.97 1.36-.97 3.92t.97 3.9 2.99 1.34"/></svg>