<svg xmlns="http://www.w3.org/2000/svg" width="600" height="400" viewBox="0 0 600 400"><rect width="100%" height="100%" fill="#ffb6c1"/><path fill="#ffffff" d="M190.15 165.87h9.74v69.41h-11.37v-44.83q0-2.69.29-5.81l-20.98 39.41q-1.49 2.83-4.56 2.83h-1.82q-3.08 0-4.56-2.83l-21.22-39.55q.14 1.58.24 3.12.1 1.53.1 2.83v44.83h-11.38v-69.41h9.74q.87 0 1.49.05.63.05 1.13.24t.91.62q.41.44.79 1.16l20.79 38.54q.81 1.54 1.51 3.17t1.37 3.36q.67-1.78 1.39-3.43.72-1.66 1.54-3.2l20.49-38.44q.39-.72.82-1.16.43-.43.93-.62.51-.19 1.13-.24.63-.05 1.49-.05m49.34 56.69v-8.3q-5.13.24-8.64.88-3.5.65-5.61 1.66t-3.03 2.35q-.91 1.35-.91 2.93 0 3.12 1.85 4.46 1.85 1.35 4.82 1.35 3.65 0 6.32-1.32 2.66-1.32 5.2-4.01m-25.05-25.87-2.11-3.79q8.49-7.78 20.44-7.78 4.32 0 7.73 1.42 3.41 1.41 5.76 3.93t3.58 6.03q1.22 3.5 1.22 7.68v31.1h-5.37q-1.68 0-2.6-.5-.91-.51-1.44-2.04l-1.05-3.56q-1.87 1.68-3.65 2.96-1.78 1.27-3.7 2.13-1.92.87-4.1 1.32-2.18.46-4.82.46-3.12 0-5.76-.84t-4.56-2.52-2.98-4.18q-1.06-2.49-1.06-5.81 0-1.87.63-3.72.62-1.84 2.04-3.52 1.41-1.68 3.67-3.17t5.54-2.59q3.29-1.11 7.66-1.8 4.37-.7 9.98-.84v-2.88q0-4.95-2.11-7.32-2.11-2.38-6.09-2.38-2.88 0-4.78.67t-3.34 1.51-2.61 1.52q-1.18.67-2.62.67-1.25 0-2.11-.65t-1.39-1.51m47.9-32.74h11.86v71.33h-11.86zm23.86 0h11.85v71.33H286.2zm45.5 21.31q5.47 0 9.96 1.78t7.68 5.04 4.92 7.97q1.73 4.7 1.73 10.51 0 5.86-1.73 10.56t-4.92 8.02q-3.19 3.31-7.68 5.08-4.49 1.78-9.96 1.78-5.52 0-10.03-1.78-4.51-1.77-7.7-5.08-3.2-3.32-4.95-8.02t-1.75-10.56q0-5.81 1.75-10.51 1.75-4.71 4.95-7.97 3.19-3.26 7.7-5.04t10.03-1.78m0 41.62q6.15 0 9.1-4.13t2.95-12.09q0-7.97-2.95-12.15-2.95-4.17-9.1-4.17-6.24 0-9.24 4.2t-3 12.12 3 12.07 9.24 4.15m94.66-40.85h9.02l-15.65 49.25h-9.5q-1.63 0-2.26-2.11l-8.83-28.47q-.43-1.44-.79-2.85-.36-1.42-.6-2.86-.29 1.44-.65 2.91-.36 1.46-.79 2.9l-8.98 28.37q-.57 2.11-2.54 2.11h-9.12l-15.6-49.25h9.46q1.29 0 2.2.63.92.62 1.2 1.58l7.06 26.3q.53 2.16.94 4.23.4 2.06.69 4.13.53-2.07 1.13-4.13.6-2.07 1.27-4.23l8.16-26.4q.29-.96 1.13-1.58t2.04-.62h5.23q1.25 0 2.14.62t1.17 1.58l7.92 26.4q.63 2.16 1.18 4.25t1.08 4.15q.62-4.08 1.78-8.4l7.24-26.3q.34-.96 1.2-1.58.87-.63 2.07-.63m48.48 5.33-2.69 4.27q-.48.77-1.01 1.08t-1.34.31q-.87 0-1.85-.48t-2.28-1.08-2.95-1.08q-1.66-.48-3.91-.48-3.51 0-5.5 1.49t-1.99 3.89q0 1.58 1.03 2.66t2.74 1.9q1.7.82 3.86 1.46 2.16.65 4.39 1.42t4.39 1.75q2.16.99 3.87 2.5 1.7 1.51 2.73 3.62 1.04 2.11 1.04 5.09 0 3.55-1.28 6.55-1.27 3-3.76 5.19-2.5 2.18-6.17 3.4-3.67 1.23-8.47 1.23-2.55 0-4.97-.46-2.43-.45-4.66-1.27t-4.13-1.92q-1.89-1.1-3.33-2.4l2.73-4.51q.53-.82 1.25-1.25t1.83-.43q1.1 0 2.08.62.99.63 2.28 1.35 1.3.72 3.05 1.34t4.44.62q2.11 0 3.63-.5 1.51-.5 2.49-1.32.99-.82 1.44-1.9.46-1.08.46-2.23 0-1.73-1.03-2.83-1.04-1.1-2.74-1.92t-3.89-1.46q-2.18-.65-4.46-1.42t-4.47-1.8q-2.18-1.03-3.88-2.62-1.71-1.58-2.74-3.88-1.03-2.31-1.03-5.57 0-3.03 1.2-5.76 1.2-2.74 3.53-4.78 2.32-2.04 5.8-3.26 3.48-1.23 8.04-1.23 5.09 0 9.27 1.68 4.17 1.68 6.96 4.42"/></svg>